<?xml version="1.0" encoding="utf-8"?>
<!-- Generator: Adobe Illustrator 26.1.0, SVG Export Plug-In . SVG Version: 6.00 Build 0)  -->
<svg version="1.1" id="Capa_1" xmlns="http://www.w3.org/2000/svg" xmlns:xlink="http://www.w3.org/1999/xlink" x="0px" y="0px"
	 viewBox="0 0 86 86" style="enable-background:new 0 0 86 86;" xml:space="preserve">
<style type="text/css">
	.st0{fill:#EC649D;}
</style>
<g>
	<path class="st0" d="M83.55,68.29L67.84,41.37L48.55,8.32c-2.62-4.49-9.13-4.46-11.71,0.05L17.87,41.6
		c-5.15,9.02-10.3,18.04-15.45,27.05c-3.14,5.5,2.34,11.92,8.26,9.67c9.32-3.53,18.65-7.06,27.97-10.59
		c0.19-0.07,0.33-0.26,0.33-0.47l0.12-7.54c0.03-1.65-1.54-2.86-3.14-2.42c-5.73,1.59-11.46,3.18-17.18,4.78
		c-0.34,0.09-0.9,0.13-1.24,0.04c-0.79-0.21-1.44-0.82-1.65-1.63c-0.26-0.97,0.18-2.03,1.09-2.57c7-3.91,14-7.81,21-11.72
		c0.77-0.43,1.26-1.24,1.27-2.12l0.18-11.96c0.01-0.97,0.39-1.82,1.13-2.54c0.71-0.69,1.52-1.04,2.44-1.05
		c0.92,0.02,1.73,0.37,2.44,1.05c0.74,0.72,1.12,1.56,1.13,2.54l0.18,11.96c0.01,0.88,0.5,1.69,1.27,2.12c7,3.91,14,7.81,21,11.72
		c0.9,0.53,1.34,1.59,1.09,2.57c-0.21,0.8-0.86,1.41-1.65,1.63c-0.34,0.09-0.9,0.05-1.24-0.04c-5.73-1.59-11.46-3.18-17.18-4.78
		c-1.59-0.44-3.16,0.77-3.14,2.42l0.12,7.55c0,0.21,0.14,0.4,0.33,0.47c9.34,3.43,18.68,6.86,28.02,10.29
		C81.33,80.22,86.74,73.76,83.55,68.29z"/>
</g>
</svg>
