<svg width="21" height="21" viewBox="0 0 21 21" fill="none" xmlns="http://www.w3.org/2000/svg">
<path d="M10.501 0C7.64933 0 7.29145 0.0124691 6.17144 0.0634384C5.05362 0.114626 4.29061 0.291597 3.62298 0.551256C2.93237 0.819446 2.34656 1.1782 1.76292 1.76205C1.17886 2.34568 0.820102 2.9315 0.551037 3.62188C0.290722 4.28973 0.113532 5.05296 0.0632193 6.17035C0.013125 7.29036 0 7.64845 0 10.5001C0 13.3518 0.0126878 13.7085 0.0634384 14.8286C0.114845 15.9464 0.291816 16.7094 0.551256 17.377C0.819665 18.0676 1.17842 18.6534 1.76227 19.2371C2.34568 19.8211 2.9315 20.1808 3.62166 20.449C4.28973 20.7086 5.05296 20.8856 6.17056 20.9368C7.29058 20.9877 7.64824 21.0002 10.4997 21.0002C13.3515 21.0002 13.7083 20.9877 14.8283 20.9368C15.9462 20.8856 16.71 20.7086 17.3781 20.449C18.0685 20.1808 18.6534 19.8211 19.2369 19.2371C19.8209 18.6534 20.1797 18.0676 20.4487 17.3772C20.7069 16.7094 20.8841 15.9462 20.9366 14.8288C20.9869 13.7088 21 13.3518 21 10.5001C21 7.64845 20.9869 7.29058 20.9366 6.17056C20.8841 5.05274 20.7069 4.28973 20.4487 3.6221C20.1797 2.9315 19.8209 2.34568 19.2369 1.76205C18.6528 1.17798 18.0687 0.819227 17.3775 0.551256C16.7081 0.291597 15.9446 0.114626 14.8268 0.0634384C13.7068 0.0124691 13.3502 0 10.4977 0H10.501ZM9.55904 1.89221C9.8386 1.89177 10.1505 1.89221 10.501 1.89221C13.3045 1.89221 13.6368 1.90227 14.7439 1.95258C15.7677 1.9994 16.3233 2.17046 16.6934 2.31418C17.1834 2.50449 17.5328 2.732 17.9001 3.0995C18.2676 3.467 18.4951 3.81701 18.6858 4.30701C18.8295 4.6767 19.0008 5.23234 19.0474 6.2561C19.0977 7.36298 19.1087 7.69549 19.1087 10.4977C19.1087 13.2999 19.0977 13.6324 19.0474 14.7393C19.0006 15.7631 18.8295 16.3187 18.6858 16.6884C18.4955 17.1784 18.2676 17.5273 17.9001 17.8946C17.5326 18.2621 17.1836 18.4896 16.6934 18.6799C16.3237 18.8243 15.7677 18.9949 14.7439 19.0417C13.637 19.092 13.3045 19.103 10.501 19.103C7.69724 19.103 7.36495 19.092 6.25807 19.0417C5.2343 18.9945 4.67867 18.8234 4.30833 18.6797C3.81832 18.4894 3.46832 18.2619 3.10081 17.8944C2.73331 17.5269 2.50581 17.1777 2.31506 16.6875C2.17134 16.3178 2.00005 15.7622 1.95346 14.7384C1.90314 13.6315 1.89308 13.299 1.89308 10.4951C1.89308 7.69111 1.90314 7.36036 1.95346 6.25347C2.00027 5.22971 2.17134 4.67408 2.31506 4.30395C2.50537 3.81395 2.73331 3.46394 3.10081 3.09644C3.46832 2.72893 3.81832 2.50143 4.30833 2.31068C4.67845 2.1663 5.2343 1.99568 6.25807 1.94865C7.2267 1.90489 7.60208 1.89177 9.55904 1.88958V1.89221ZM16.1059 3.63566C15.4102 3.63566 14.8458 4.19939 14.8458 4.89524C14.8458 5.59087 15.4102 6.15525 16.1059 6.15525C16.8015 6.15525 17.3659 5.59087 17.3659 4.89524C17.3659 4.19961 16.8015 3.63523 16.1059 3.63523V3.63566ZM10.501 5.10786C7.52311 5.10786 5.10874 7.52223 5.10874 10.5001C5.10874 13.478 7.52311 15.8913 10.501 15.8913C13.4789 15.8913 15.8924 13.478 15.8924 10.5001C15.8924 7.52223 13.4786 5.10786 10.5008 5.10786H10.501ZM10.501 7.00007C12.4339 7.00007 14.001 8.56699 14.001 10.5001C14.001 12.433 12.4339 14.0001 10.501 14.0001C8.56787 14.0001 7.00095 12.433 7.00095 10.5001C7.00095 8.56699 8.56787 7.00007 10.501 7.00007Z" fill="#676E80"/>
</svg>
