<svg width="21" height="21" viewBox="0 0 21 21" fill="none" xmlns="http://www.w3.org/2000/svg">
<path d="M17.8517 3.05346C15.8909 1.08268 13.2765 0 10.4925 0C4.75979 0 0.0898074 4.66999 0.0848181 10.4027C0.0848181 12.2388 0.563791 14.0249 1.47184 15.6066L0 21L5.51817 19.5531C7.0399 20.3813 8.75123 20.8204 10.4925 20.8204H10.4975C16.2302 20.8204 20.9002 16.1504 20.9052 10.4127C20.9002 7.63364 19.8175 5.01924 17.8517 3.05346ZM10.4925 19.0592C8.93583 19.0592 7.4141 18.6401 6.08695 17.8517L5.77262 17.6622L2.49964 18.5203L3.37277 15.3272L3.1682 14.9979C2.30007 13.6208 1.84604 12.0292 1.84604 10.3977C1.84604 5.63792 5.72772 1.75624 10.4975 1.75624C12.8075 1.75624 14.9779 2.6593 16.6144 4.29081C18.2459 5.9273 19.1439 8.09765 19.1439 10.4077C19.139 15.1825 15.2573 19.0592 10.4925 19.0592ZM15.2373 12.583C14.9779 12.4533 13.7006 11.8247 13.4611 11.7349C13.2216 11.65 13.047 11.6051 12.8774 11.8646C12.7028 12.124 12.2038 12.7128 12.0541 12.8824C11.9045 13.057 11.7498 13.077 11.4904 12.9473C11.2309 12.8175 10.3927 12.5431 9.39984 11.655C8.6265 10.9665 8.10761 10.1133 7.95294 9.85388C7.80326 9.59444 7.93797 9.45474 8.0677 9.32502C8.18245 9.21026 8.32714 9.02067 8.45686 8.87099C8.58658 8.72131 8.63149 8.61155 8.71631 8.43692C8.80112 8.2623 8.76121 8.11262 8.69635 7.98289C8.63149 7.85317 8.1126 6.57092 7.89307 6.05203C7.68352 5.54312 7.46898 5.61297 7.30932 5.60798C7.15964 5.598 6.98502 5.598 6.81039 5.598C6.63577 5.598 6.35637 5.66287 6.11688 5.92231C5.87739 6.18175 5.20883 6.81041 5.20883 8.09266C5.20883 9.37491 6.14183 10.6073 6.27155 10.7819C6.40127 10.9565 8.10262 13.5809 10.712 14.7085C11.3307 14.9779 11.8147 15.1376 12.1938 15.2573C12.8175 15.4569 13.3813 15.4269 13.8303 15.3621C14.3293 15.2872 15.367 14.7334 15.5866 14.1247C15.8011 13.516 15.8011 12.9971 15.7362 12.8874C15.6714 12.7776 15.4968 12.7128 15.2373 12.583Z" fill="#676E80"/>
</svg>
