<svg width="16" height="15" viewBox="0 0 16 15" fill="none" xmlns="http://www.w3.org/2000/svg">
<path fill-rule="evenodd" clip-rule="evenodd" d="M0 3.5C0 2.67157 0.671573 2 1.5 2H14.5C15.3284 2 16 2.67157 16 3.5V12.5C16 13.3284 15.3284 14 14.5 14H1.5C0.671573 14 0 13.3284 0 12.5V3.5ZM3 3V13H4V3H3ZM12 3V13H13V3H12Z" fill="#676E80"/>
<rect x="2" y="13.5" width="1" height="1" rx="0.5" fill="#676E80"/>
<rect x="13" y="13.5" width="1" height="1" rx="0.5" fill="#676E80"/>
<path d="M5.5 2V2C5.5 1.17157 6.17157 0.5 7 0.5H9C9.82843 0.5 10.5 1.17157 10.5 2V2" stroke="#676E80" stroke-linejoin="round"/>
</svg>
