<svg width="17" height="16" viewBox="0 0 17 16" fill="none" xmlns="http://www.w3.org/2000/svg">
<path d="M15.7067 7.5V5.5C15.7067 2.46244 12.676 0 8.9375 0C5.19896 0 2.16827 2.46244 2.16827 5.5V7.5H0.9375V13H2.78365V16H15.0913V13H16.9375V7.5H15.7067ZM15.0913 11.5H13.2452V14.5H4.62981V11.5H2.78365V9H4.01442V5.5C4.01442 3.29441 6.22292 1.5 8.9375 1.5C11.6521 1.5 13.8606 3.29441 13.8606 5.5V9H15.0913V11.5Z" fill="#676E80"/>
<path d="M11.6857 9.5L12.6574 4.5H10.7884L9.81678 9.5H8.05825L7.08663 4.5H5.21759L6.18928 9.5H4.62982V11H13.2452V9.5H11.6857Z" fill="#676E80"/>
</svg>
