<svg width="20" height="20" viewBox="0 0 20 20" fill="none" xmlns="http://www.w3.org/2000/svg">
<g clip-path="url(#clip0_68_17)">
<path d="M7.47656 6.41119C8.61254 6.02198 9.21824 4.78549 8.82898 3.64951C8.44023 2.51389 7.20398 1.90764 6.06781 2.29694C4.9318 2.68584 4.32609 3.92225 4.715 5.05826C5.1041 6.19459 6.34039 6.79979 7.47656 6.41119Z" fill="#676E80"/>
<path d="M3.99977 9.79557V9.79596C4.65234 8.78756 4.36367 7.44103 3.35586 6.78869C2.34766 6.1367 1.00144 6.42478 0.348906 7.43279V7.43318C-0.303243 8.44119 -0.0146098 9.7874 0.993242 10.4394C2.00141 11.092 3.34742 10.8036 3.99977 9.79557Z" fill="#676E80"/>
<path d="M12.5234 6.4112C13.6596 6.79979 14.8959 6.1946 15.285 5.05823C15.6739 3.92225 15.0682 2.68581 13.9322 2.2969C12.796 1.90761 11.5598 2.51389 11.171 3.64948C10.7818 4.7855 11.3875 6.02198 12.5234 6.4112Z" fill="#676E80"/>
<path d="M10 7.48004C6.56344 7.48004 2.77156 12.2385 3.8693 15.6243C4.92914 18.8932 8.24043 17.546 10 17.546C11.7596 17.546 15.0708 18.8932 16.1307 15.6243C17.2284 12.2385 13.4366 7.48004 10 7.48004Z" fill="#676E80"/>
<path d="M19.6511 7.43315V7.43276C18.9986 6.42475 17.6524 6.13667 16.6442 6.78866C15.6364 7.441 15.3477 8.78753 16.0002 9.79593V9.79554C16.6526 10.8036 17.9986 11.092 19.0068 10.4393C20.0146 9.78737 20.3033 8.4412 19.6511 7.43315Z" fill="#676E80"/>
</g>
<defs>
<clipPath id="clip0_68_17">
<rect width="20" height="20" fill="white"/>
</clipPath>
</defs>
</svg>
