<svg width="137" height="137" viewBox="0 0 137 137" fill="none" xmlns="http://www.w3.org/2000/svg">
<circle cx="68.5" cy="68.5" r="55" stroke="#676E80"/>
<circle cx="68.5" cy="68.5" r="68" stroke="#676E80"/>
<path d="M101.294 77.8302L88.2261 57.189L72.5598 32.4049C70.631 29.3523 65.8681 29.3887 63.9394 32.4412L48.5093 57.3707C44.2581 64.2753 39.9676 71.18 35.6771 78.121C33.3547 81.864 37.409 86.1885 41.7389 84.6985C49.5721 81.973 57.4446 79.2112 65.2777 76.4856L65.3958 70.1988C65.3958 69.2176 64.4117 68.5271 63.4277 68.7815C58.6648 70.0171 53.9019 71.2163 49.0997 72.4519C48.9423 72.4882 48.7454 72.5245 48.588 72.4882C47.8007 72.4155 47.1316 71.9431 46.9348 71.2526C46.7379 70.5258 47.0922 69.7627 47.8007 69.3629C53.4296 66.4557 59.0584 63.5485 64.6873 60.6776C65.1596 60.4232 65.4745 59.9508 65.4745 59.4421L65.632 50.466C65.632 49.7392 65.9469 49.1214 66.5373 48.6127C67.0884 48.1039 67.7575 47.8495 68.4661 47.8495C69.214 47.8495 69.8438 48.1039 70.3948 48.6127C70.9853 49.1214 71.3002 49.7755 71.3002 50.466L71.4576 59.4421C71.4576 59.9508 71.7725 60.4232 72.2449 60.6776C77.8737 63.5848 83.5026 66.4921 89.1314 69.3629C89.8399 69.7627 90.1942 70.5258 89.9974 71.2526C89.8006 71.9431 89.1314 72.4519 88.3442 72.4882C88.1867 72.4882 87.9899 72.4882 87.8324 72.4519C83.0696 71.2163 78.3067 70.0171 73.5045 68.7815C72.4811 68.5271 71.497 69.2176 71.5364 70.1988L71.6544 76.4856C79.5269 79.1385 87.3601 81.8277 95.2326 84.4805C99.6412 85.9341 103.617 81.5369 101.294 77.8302Z" fill="#676E80"/>
<path d="M36.8963 87.6145V94.8872H35.799V87.6145H36.8963ZM39.4709 91.6486V94.8872H38.4091V89.4327H39.4283V90.3204H39.4957C39.6212 90.0316 39.8177 89.7996 40.0852 89.6244C40.3551 89.4492 40.6948 89.3616 41.1044 89.3616C41.4761 89.3616 41.8016 89.4398 42.081 89.596C42.3603 89.7499 42.5769 89.9795 42.7308 90.2849C42.8847 90.5903 42.9616 90.9679 42.9616 91.4177V94.8872H41.8999V91.5456C41.8999 91.1502 41.7969 90.8413 41.5909 90.6187C41.3849 90.3938 41.102 90.2814 40.7422 90.2814C40.496 90.2814 40.277 90.3347 40.0852 90.4412C39.8958 90.5477 39.7455 90.704 39.6342 90.9099C39.5253 91.1135 39.4709 91.3597 39.4709 91.6486ZM46.9318 89.4327V90.2849H43.9524V89.4327H46.9318ZM44.7514 88.1258H45.8132V93.2856C45.8132 93.4916 45.844 93.6467 45.9055 93.7508C45.9671 93.8526 46.0464 93.9225 46.1435 93.9604C46.2429 93.9959 46.3506 94.0136 46.4666 94.0136C46.5518 94.0136 46.6264 94.0077 46.6903 93.9959C46.7543 93.984 46.804 93.9746 46.8395 93.9675L47.0312 94.8446C46.9697 94.8683 46.8821 94.8919 46.7685 94.9156C46.6548 94.9417 46.5128 94.9559 46.3423 94.9582C46.063 94.963 45.8026 94.9132 45.5611 94.8091C45.3196 94.7049 45.1243 94.5439 44.9751 94.3261C44.826 94.1083 44.7514 93.8349 44.7514 93.5058V88.1258ZM50.3986 94.9973C49.8612 94.9973 49.3984 94.8825 49.0101 94.6528C48.6242 94.4208 48.3259 94.0953 48.1152 93.6763C47.9069 93.2549 47.8027 92.7613 47.8027 92.1954C47.8027 91.6367 47.9069 91.1443 48.1152 90.7182C48.3259 90.292 48.6195 89.9594 48.9959 89.7203C49.3747 89.4812 49.8174 89.3616 50.324 89.3616C50.6318 89.3616 50.9301 89.4125 51.2189 89.5143C51.5078 89.6161 51.767 89.7759 51.9966 89.9937C52.2263 90.2115 52.4074 90.4945 52.54 90.8425C52.6725 91.1881 52.7388 91.6083 52.7388 92.1031V92.4795H48.4029V91.6841H51.6983C51.6983 91.4047 51.6415 91.1573 51.5279 90.9419C51.4142 90.7241 51.2544 90.5525 51.0485 90.427C50.8449 90.3015 50.6058 90.2388 50.3311 90.2388C50.0328 90.2388 49.7724 90.3122 49.5499 90.4589C49.3297 90.6034 49.1593 90.7927 49.0385 91.0271C48.9202 91.2591 48.861 91.5113 48.861 91.7835V92.405C48.861 92.7695 48.9249 93.0797 49.0527 93.3354C49.1829 93.591 49.3641 93.7864 49.5961 93.9213C49.8281 94.0539 50.0991 94.1202 50.4093 94.1202C50.6105 94.1202 50.794 94.0918 50.9597 94.0349C51.1254 93.9757 51.2686 93.8882 51.3894 93.7722C51.5101 93.6561 51.6025 93.5129 51.6664 93.3425L52.6713 93.5236C52.5908 93.8195 52.4464 94.0787 52.2381 94.3013C52.0321 94.5214 51.7729 94.6931 51.4604 94.8162C51.1503 94.9369 50.7963 94.9973 50.3986 94.9973ZM53.9169 94.8872V89.4327H54.9432V90.2991H55C55.0994 90.0056 55.2746 89.7748 55.5256 89.6067C55.7789 89.4362 56.0653 89.351 56.3849 89.351C56.4512 89.351 56.5294 89.3534 56.6193 89.3581C56.7116 89.3628 56.7839 89.3687 56.8359 89.3758V90.3915C56.7933 90.3796 56.7176 90.3666 56.6087 90.3524C56.4998 90.3358 56.3909 90.3275 56.282 90.3275C56.031 90.3275 55.8073 90.3808 55.6108 90.4873C55.4167 90.5915 55.2628 90.7371 55.1491 90.9241C55.0355 91.1088 54.9787 91.3195 54.9787 91.5562V94.8872H53.9169ZM60.1278 88.5591V87.6145H65.7564V88.5591H63.4872V94.8872H62.3935V88.5591H60.1278ZM66.3485 94.8872V89.4327H67.3748V90.2991H67.4316C67.5311 90.0056 67.7063 89.7748 67.9572 89.6067C68.2105 89.4362 68.497 89.351 68.8166 89.351C68.8829 89.351 68.961 89.3534 69.051 89.3581C69.1433 89.3628 69.2155 89.3687 69.2676 89.3758V90.3915C69.225 90.3796 69.1492 90.3666 69.0403 90.3524C68.9314 90.3358 68.8225 90.3275 68.7136 90.3275C68.4627 90.3275 68.2389 90.3808 68.0424 90.4873C67.8483 90.5915 67.6944 90.7371 67.5808 90.9241C67.4672 91.1088 67.4103 91.3195 67.4103 91.5562V94.8872H66.3485ZM71.725 95.0079C71.3793 95.0079 71.0668 94.944 70.7875 94.8162C70.5081 94.686 70.2868 94.4978 70.1234 94.2516C69.9624 94.0053 69.8819 93.7035 69.8819 93.346C69.8819 93.0382 69.9411 92.7849 70.0595 92.5861C70.1779 92.3872 70.3377 92.2298 70.5389 92.1138C70.7401 91.9978 70.965 91.9102 71.2136 91.851C71.4622 91.7918 71.7155 91.7468 71.9735 91.716C72.3002 91.6782 72.5654 91.6474 72.769 91.6237C72.9726 91.5977 73.1206 91.5562 73.2129 91.4994C73.3052 91.4426 73.3514 91.3503 73.3514 91.2224V91.1976C73.3514 90.8874 73.2638 90.6472 73.0886 90.4767C72.9158 90.3062 72.6577 90.221 72.3145 90.221C71.957 90.221 71.6752 90.3003 71.4693 90.4589C71.2657 90.6152 71.1248 90.7892 71.0467 90.981L70.0488 90.7537C70.1672 90.4222 70.34 90.1547 70.5673 89.9511C70.7969 89.7452 71.0609 89.596 71.3592 89.5037C71.6575 89.409 71.9712 89.3616 72.3002 89.3616C72.5181 89.3616 72.7489 89.3877 72.9927 89.4398C73.2389 89.4895 73.4686 89.5818 73.6816 89.7168C73.8971 89.8517 74.0734 90.0446 74.2108 90.2956C74.3481 90.5442 74.4167 90.8673 74.4167 91.265V94.8872H73.3798V94.1415H73.3372C73.2685 94.2788 73.1655 94.4137 73.0282 94.5463C72.8909 94.6789 72.7145 94.789 72.4991 94.8766C72.2837 94.9641 72.0256 95.0079 71.725 95.0079ZM71.9558 94.1557C72.2493 94.1557 72.5003 94.0977 72.7086 93.9817C72.9193 93.8657 73.0791 93.7141 73.188 93.5271C73.2993 93.3377 73.3549 93.1353 73.3549 92.9199V92.2168C73.3171 92.2546 73.2437 92.2901 73.1348 92.3233C73.0282 92.3541 72.9063 92.3813 72.769 92.405C72.6317 92.4263 72.4979 92.4464 72.3677 92.4653C72.2375 92.4819 72.1286 92.4961 72.041 92.5079C71.835 92.534 71.6468 92.5778 71.4764 92.6393C71.3083 92.7009 71.1734 92.7897 71.0716 92.9057C70.9721 93.0193 70.9224 93.1708 70.9224 93.3602C70.9224 93.623 71.0195 93.8219 71.2136 93.9568C71.4077 94.0894 71.6551 94.1557 71.9558 94.1557ZM76.8928 91.6486V94.8872H75.831V89.4327H76.8501V90.3204H76.9176C77.0431 90.0316 77.2396 89.7996 77.5071 89.6244C77.777 89.4492 78.1167 89.3616 78.5263 89.3616C78.898 89.3616 79.2235 89.4398 79.5028 89.596C79.7822 89.7499 79.9988 89.9795 80.1527 90.2849C80.3066 90.5903 80.3835 90.9679 80.3835 91.4177V94.8872H79.3217V91.5456C79.3217 91.1502 79.2188 90.8413 79.0128 90.6187C78.8068 90.3938 78.5239 90.2814 78.1641 90.2814C77.9179 90.2814 77.6989 90.3347 77.5071 90.4412C77.3177 90.5477 77.1674 90.704 77.0561 90.9099C76.9472 91.1135 76.8928 91.3597 76.8928 91.6486ZM85.8949 90.7643L84.9325 90.9348C84.8923 90.8117 84.8284 90.6945 84.7408 90.5832C84.6555 90.472 84.5395 90.3808 84.3928 90.3098C84.246 90.2388 84.0625 90.2033 83.8423 90.2033C83.5417 90.2033 83.2907 90.2707 83.0895 90.4057C82.8883 90.5382 82.7876 90.7099 82.7876 90.9206C82.7876 91.1029 82.8551 91.2497 82.9901 91.3609C83.125 91.4722 83.3428 91.5633 83.6435 91.6344L84.5099 91.8332C85.0118 91.9492 85.3859 92.128 85.6321 92.3695C85.8783 92.6109 86.0014 92.9246 86.0014 93.3105C86.0014 93.6372 85.9067 93.9284 85.7173 94.1841C85.5303 94.4374 85.2687 94.6363 84.9325 94.7807C84.5987 94.9251 84.2116 94.9973 83.7713 94.9973C83.1605 94.9973 82.6622 94.8671 82.2763 94.6067C81.8904 94.3439 81.6536 93.971 81.5661 93.4881L82.5923 93.3318C82.6563 93.5993 82.7876 93.8017 82.9865 93.9391C83.1854 94.074 83.4446 94.1415 83.7642 94.1415C84.1122 94.1415 84.3904 94.0693 84.5987 93.9248C84.8071 93.7781 84.9112 93.5993 84.9112 93.3886C84.9112 93.2182 84.8473 93.0749 84.7195 92.9589C84.594 92.8429 84.401 92.7553 84.1406 92.6962L83.2173 92.4937C82.7083 92.3777 82.3319 92.1931 82.0881 91.9398C81.8466 91.6864 81.7259 91.3657 81.7259 90.9774C81.7259 90.6554 81.8158 90.3737 81.9957 90.1322C82.1757 89.8908 82.4242 89.7025 82.7415 89.5676C83.0587 89.4303 83.4221 89.3616 83.8317 89.3616C84.4212 89.3616 84.8852 89.4895 85.2237 89.7452C85.5623 89.9985 85.786 90.3382 85.8949 90.7643ZM89.7647 89.4327V90.2849H86.6824V89.4327H89.7647ZM87.5275 94.8872V88.8006C87.5275 88.4596 87.6021 88.1767 87.7512 87.9518C87.9004 87.7246 88.0981 87.5553 88.3443 87.444C88.5905 87.3304 88.858 87.2736 89.1468 87.2736C89.3599 87.2736 89.5422 87.2913 89.6937 87.3268C89.8452 87.36 89.9577 87.3908 90.0311 87.4192L89.7825 88.2785C89.7328 88.2643 89.6689 88.2478 89.5907 88.2288C89.5126 88.2075 89.4179 88.1969 89.3066 88.1969C89.0486 88.1969 88.8639 88.2608 88.7527 88.3886C88.6438 88.5165 88.5893 88.7011 88.5893 88.9426V94.8872H87.5275ZM92.9963 94.9973C92.4589 94.9973 91.996 94.8825 91.6078 94.6528C91.2219 94.4208 90.9236 94.0953 90.7129 93.6763C90.5046 93.2549 90.4004 92.7613 90.4004 92.1954C90.4004 91.6367 90.5046 91.1443 90.7129 90.7182C90.9236 90.292 91.2172 89.9594 91.5936 89.7203C91.9724 89.4812 92.4151 89.3616 92.9217 89.3616C93.2295 89.3616 93.5278 89.4125 93.8166 89.5143C94.1054 89.6161 94.3646 89.7759 94.5943 89.9937C94.8239 90.2115 95.005 90.4945 95.1376 90.8425C95.2702 91.1881 95.3365 91.6083 95.3365 92.1031V92.4795H91.0005V91.6841H94.296C94.296 91.4047 94.2392 91.1573 94.1255 90.9419C94.0119 90.7241 93.8521 90.5525 93.6461 90.427C93.4425 90.3015 93.2034 90.2388 92.9288 90.2388C92.6305 90.2388 92.3701 90.3122 92.1475 90.4589C91.9274 90.6034 91.7569 90.7927 91.6362 91.0271C91.5178 91.2591 91.4586 91.5113 91.4586 91.7835V92.405C91.4586 92.7695 91.5225 93.0797 91.6504 93.3354C91.7806 93.591 91.9617 93.7864 92.1937 93.9213C92.4257 94.0539 92.6968 94.1202 93.0069 94.1202C93.2082 94.1202 93.3916 94.0918 93.5574 94.0349C93.7231 93.9757 93.8663 93.8882 93.987 93.7722C94.1078 93.6561 94.2001 93.5129 94.264 93.3425L95.269 93.5236C95.1885 93.8195 95.0441 94.0787 94.8358 94.3013C94.6298 94.5214 94.3706 94.6931 94.0581 94.8162C93.7479 94.9369 93.394 94.9973 92.9963 94.9973ZM96.5146 94.8872V89.4327H97.5408V90.2991H97.5977C97.6971 90.0056 97.8723 89.7748 98.1232 89.6067C98.3765 89.4362 98.663 89.351 98.9826 89.351C99.0489 89.351 99.127 89.3534 99.217 89.3581C99.3093 89.3628 99.3815 89.3687 99.4336 89.3758V90.3915C99.391 90.3796 99.3152 90.3666 99.2063 90.3524C99.0974 90.3358 98.9885 90.3275 98.8796 90.3275C98.6287 90.3275 98.4049 90.3808 98.2085 90.4873C98.0143 90.5915 97.8604 90.7371 97.7468 90.9241C97.6332 91.1088 97.5763 91.3195 97.5763 91.5562V94.8872H96.5146Z" fill="#676E80"/>
</svg>
