<?xml version="1.0" encoding="utf-8"?>
<!-- Generator: Adobe Illustrator 24.3.0, SVG Export Plug-In . SVG Version: 6.00 Build 0)  -->
<svg version="1.1" id="Capa_1" xmlns="http://www.w3.org/2000/svg" xmlns:xlink="http://www.w3.org/1999/xlink" x="0px" y="0px"
	 viewBox="0 0 177.4 178.5" style="enable-background:new 0 0 177.4 178.5;" xml:space="preserve">
<style type="text/css">
	.st0{fill:#676E80;}
	.st1{fill:none;}
	.st2{enable-background:new    ;}
</style>
<path class="st0" d="M172.4,131.3l-33.1-56.8L99.5,6.2c-3.5-6-11.2-8-17.3-4.5c-1.9,1.1-3.5,2.7-4.6,4.6L38.4,75L5.8,132.1
	c-5.9,10.3,4.4,22.2,15.4,18.1L81,127.6l0.3-17.3c0-2.2-1.8-4-4-4c-0.3,0-0.7,0-1,0.1L40,116.5c-0.4,0.1-0.9,0.2-1.3,0.1
	c-2.5-0.2-4.5-2.3-4.3-4.9c0.1-1.6,1-3,2.3-3.7l42.9-24c1.2-0.7,2-2,2-3.4L82,55.9c0-4,3.2-7.2,7.2-7.2s7.2,3.2,7.2,7.2l0.4,24.7
	c0,1.4,0.8,2.7,2,3.4l42.9,23.9c2.2,1.3,3,4.1,1.7,6.3c-0.8,1.4-2.2,2.2-3.7,2.3c-0.4,0-0.9,0-1.3-0.1L102,106.3
	c-2.1-0.6-4.3,0.7-4.9,2.9c-0.1,0.3-0.1,0.7-0.1,1l0.3,17.3l59.9,22C168.3,153.6,178.4,141.5,172.4,131.3z"/>
<rect x="4.8" y="156" class="st1" width="164" height="35"/>
<g class="st2">
	<path class="st0" d="M6.8,174.8v-18.7h3.8v18.7H6.8z"/>
	<path class="st0" d="M17.7,160.9l0.1,2.1c1-1.6,2.5-2.3,4.5-2.3c0.8,0,1.4,0.1,2,0.3c0.6,0.2,1.1,0.5,1.5,0.9
		c0.4,0.4,0.7,0.8,0.9,1.3s0.3,1.1,0.4,1.9c0,0.4,0.1,1.4,0.1,3.1v6.6h-3.6v-7c0-1.5-0.1-2.5-0.4-3.1c-0.4-0.8-1.1-1.2-2-1.2
		c-0.6,0-1.1,0.2-1.7,0.5c-0.5,0.3-0.9,0.8-1.1,1.4c-0.2,0.6-0.4,1.5-0.4,2.7v6.6h-3.6v-11.2c0-1,0-1.9-0.1-2.7H17.7z"/>
	<path class="st0" d="M32,163.7h-2.6V161H32v-2.8l3.5-1.1v4h3.2v2.7h-3.2v5.1c0,1.2,0.1,2,0.3,2.3c0.4,0.6,1,0.9,1.8,0.9
		c0.4,0,0.9-0.1,1.3-0.2l0.1,2.9c-0.7,0.2-1.5,0.3-2.5,0.3c-0.7,0-1.3-0.1-1.7-0.2c-0.5-0.2-0.9-0.4-1.3-0.6
		c-0.4-0.3-0.6-0.6-0.8-0.9c-0.2-0.3-0.4-0.9-0.5-1.5c-0.1-0.5-0.2-1.2-0.2-2.1V163.7z"/>
	<path class="st0" d="M53.5,169h-9.4c0,0.6,0.2,1.2,0.6,1.8c0.4,0.5,0.8,1,1.4,1.2s1.3,0.4,2.1,0.4c0.7,0,1.5-0.1,2.2-0.3
		c0.7-0.2,1.5-0.5,2.3-1l0,3c-0.3,0.2-0.9,0.5-1.9,0.7c-0.9,0.2-1.9,0.4-2.9,0.4c-1.5,0-2.8-0.3-3.9-0.8c-1.1-0.5-1.9-1.4-2.5-2.5
		s-0.9-2.5-0.9-4c0-1.5,0.3-2.8,0.8-3.9c0.6-1.1,1.4-2,2.4-2.6c1.1-0.6,2.2-0.9,3.5-0.9c1.4,0,2.5,0.3,3.5,1c1,0.7,1.7,1.6,2.1,2.8
		c0.4,1.2,0.6,2.5,0.6,4C53.5,168.4,53.5,168.7,53.5,169z M44,166.5h6.1c-0.1-1.2-0.3-2-0.9-2.6c-0.5-0.6-1.2-0.9-2.1-0.9
		c-0.8,0-1.5,0.3-1.9,0.8C44.5,164.5,44.1,165.4,44,166.5z"/>
	<path class="st0" d="M56.3,160.9h3.3l0.1,3.5c0.2-1.1,0.7-2,1.5-2.7c0.7-0.7,1.6-1,2.5-1c0.3,0,0.7,0,1,0.1v3.4
		c-0.3-0.1-0.6-0.2-1.1-0.2c-0.7,0-1.2,0.1-1.6,0.4s-0.8,0.6-1.1,1c-0.3,0.4-0.5,0.9-0.6,1.4s-0.2,1.3-0.2,2.2v5.7h-3.6v-9.7
		l-0.1-3.8L56.3,160.9z"/>
	<path class="st0" d="M86.7,156.1v3.2h-5.4v15.5h-3.8v-15.5h-5.3v-3.2H86.7z"/>
	<path class="st0" d="M86,160.9h3.3l0.1,3.5c0.2-1.1,0.7-2,1.5-2.7c0.7-0.7,1.6-1,2.5-1c0.3,0,0.7,0,1,0.1v3.4
		c-0.3-0.1-0.6-0.2-1.1-0.2c-0.7,0-1.2,0.1-1.6,0.4c-0.4,0.3-0.8,0.6-1.1,1c-0.3,0.4-0.5,0.9-0.6,1.4s-0.2,1.3-0.2,2.2v5.7h-3.6
		v-9.7l-0.1-3.8L86,160.9z"/>
	<path class="st0" d="M104.4,174.8l-0.1-2.1c-0.3,0.7-0.9,1.2-1.7,1.6c-0.8,0.4-1.7,0.7-2.7,0.7c-0.9,0-1.7-0.2-2.4-0.5
		s-1.3-0.9-1.7-1.5c-0.4-0.7-0.6-1.4-0.6-2.3c0-1.6,0.7-2.8,2.1-3.6c1.1-0.6,2.8-0.9,5-0.9c0.6,0,1.2,0,1.9,0.1c0-0.2,0-0.3,0-0.4
		c0-0.9-0.3-1.5-0.8-2c-0.5-0.5-1.3-0.7-2.3-0.7c-0.8,0-1.5,0.1-2.3,0.4s-1.4,0.7-2,1.1l-0.1-3.1c0.5-0.2,1.2-0.5,2.1-0.7
		c0.9-0.2,1.9-0.3,2.8-0.3c1.2,0,2.2,0.2,3,0.5c0.8,0.3,1.5,0.8,2,1.5c0.4,0.5,0.6,1.1,0.7,1.8c0.1,0.8,0.2,1.9,0.2,3.3v2.1l0,2
		l0.1,2.1l0.1,0.9H104.4z M104.2,168.5c-0.4,0-0.8-0.1-0.9-0.1c-0.9,0-1.7,0.1-2.4,0.2c-0.7,0.2-1.3,0.4-1.6,0.8
		c-0.3,0.4-0.5,0.8-0.5,1.3c0,0.5,0.2,1,0.6,1.3c0.4,0.3,0.9,0.5,1.6,0.5c0.6,0,1.2-0.2,1.7-0.5c0.6-0.3,1-0.8,1.2-1.4
		S104.2,169.4,104.2,168.5z"/>
	<path class="st0" d="M114.4,160.9l0.1,2.1c1-1.6,2.5-2.3,4.5-2.3c0.8,0,1.4,0.1,2,0.3c0.6,0.2,1.1,0.5,1.5,0.9
		c0.4,0.4,0.7,0.8,0.9,1.3s0.3,1.1,0.4,1.9c0,0.4,0.1,1.4,0.1,3.1v6.6h-3.6v-7c0-1.5-0.1-2.5-0.4-3.1c-0.4-0.8-1.1-1.2-2-1.2
		c-0.6,0-1.1,0.2-1.7,0.5c-0.5,0.3-0.9,0.8-1.1,1.4c-0.2,0.6-0.4,1.5-0.4,2.7v6.6h-3.6v-11.2c0-1,0-1.9-0.1-2.7H114.4z"/>
	<path class="st0" d="M136.1,161.2l-0.3,2.8c-1.1-0.4-2.1-0.6-3-0.6c-0.9,0-1.5,0.2-1.9,0.5c-0.4,0.3-0.6,0.7-0.6,1
		c0,0.3,0.1,0.5,0.4,0.8c0.2,0.2,0.5,0.3,0.6,0.3c0,0,0.1,0,0.1,0l2.5,0.9c0.8,0.3,1.5,0.8,2,1.4c0.5,0.7,0.7,1.5,0.7,2.4
		c0,0.8-0.1,1.4-0.4,2c-0.3,0.5-0.7,1-1.1,1.3c-0.4,0.4-0.9,0.6-1.3,0.8c-0.7,0.3-1.6,0.4-2.7,0.4c-1.4,0-2.8-0.2-4.3-0.6l0.2-3
		c1.4,0.6,2.6,0.9,3.5,0.9c0.9,0,1.5-0.2,2-0.5c0.3-0.2,0.5-0.6,0.5-1.1c0-0.3-0.1-0.6-0.2-0.8c-0.1-0.2-0.4-0.3-0.7-0.4l-1.6-0.5
		c-1.4-0.5-2.4-1-2.9-1.7s-0.8-1.5-0.8-2.5c0-1.2,0.4-2.1,1.3-2.9c1.1-0.9,2.5-1.4,4.3-1.4C133.5,160.6,134.8,160.8,136.1,161.2z"/>
	<path class="st0" d="M148,154.7l-0.3,3c-0.4-0.2-0.9-0.3-1.4-0.3c-0.7,0-1.2,0.2-1.4,0.7s-0.4,1.4-0.4,2.9h3.2v2.7h-3.2v11.1h-3.6
		v-11.1h-2.7V161h2.7c0-1.8,0.2-3.1,0.5-3.9s0.8-1.5,1.5-1.9c0.7-0.5,1.7-0.7,2.9-0.7C146.6,154.5,147.3,154.6,148,154.7z"/>
	<path class="st0" d="M161.7,169h-9.4c0,0.6,0.2,1.2,0.6,1.8c0.4,0.5,0.8,1,1.4,1.2s1.3,0.4,2.1,0.4c0.7,0,1.5-0.1,2.2-0.3
		c0.7-0.2,1.5-0.5,2.3-1l0,3c-0.3,0.2-0.9,0.5-1.9,0.7c-0.9,0.2-1.9,0.4-2.9,0.4c-1.5,0-2.8-0.3-3.9-0.8c-1.1-0.5-1.9-1.4-2.5-2.5
		s-0.9-2.5-0.9-4c0-1.5,0.3-2.8,0.8-3.9c0.6-1.1,1.4-2,2.4-2.6c1.1-0.6,2.2-0.9,3.5-0.9c1.4,0,2.5,0.3,3.5,1c1,0.7,1.7,1.6,2.1,2.8
		c0.4,1.2,0.6,2.5,0.6,4C161.7,168.4,161.7,168.7,161.7,169z M152.2,166.5h6.1c-0.1-1.2-0.3-2-0.9-2.6c-0.5-0.6-1.2-0.9-2.1-0.9
		c-0.8,0-1.5,0.3-1.9,0.8C152.7,164.5,152.3,165.4,152.2,166.5z"/>
	<path class="st0" d="M164.5,160.9h3.3l0.1,3.5c0.2-1.1,0.7-2,1.5-2.7c0.7-0.7,1.6-1,2.5-1c0.3,0,0.7,0,1,0.1v3.4
		c-0.3-0.1-0.6-0.2-1.1-0.2c-0.7,0-1.2,0.1-1.6,0.4c-0.4,0.3-0.8,0.6-1.1,1c-0.3,0.4-0.5,0.9-0.6,1.4s-0.2,1.3-0.2,2.2v5.7h-3.6
		v-9.7l-0.1-3.8L164.5,160.9z"/>
</g>
</svg>
