<?xml version="1.0" encoding="utf-8"?>
<!-- Generator: Adobe Illustrator 24.3.0, SVG Export Plug-In . SVG Version: 6.00 Build 0)  -->
<svg version="1.1" id="Capa_1" xmlns="http://www.w3.org/2000/svg" xmlns:xlink="http://www.w3.org/1999/xlink" x="0px" y="0px"
	 viewBox="0 0 16 16" style="enable-background:new 0 0 16 16;" xml:space="preserve">
<style type="text/css">
	.st0{fill:#676E80;}
</style>
<path class="st0" d="M7,14c0,0-1,0-1-1s1-4,5-4s5,3,5,4s-1,1-1,1H7z M11,8c1.7,0,3-1.3,3-3s-1.3-3-3-3S8,3.3,8,5S9.3,8,11,8 M5.2,14
	C5.1,13.7,5,13.3,5,13c0-1.4,0.7-2.8,1.9-3.7C6.3,9.1,5.7,9,5,9c-4,0-5,3-5,4s1,1,1,1H5.2z M4.5,8C5.9,8,7,6.9,7,5.5S5.9,3,4.5,3
	S2,4.1,2,5.5S3.1,8,4.5,8"/>
</svg>
