<?xml version="1.0" encoding="utf-8"?>
<!-- Generator: Adobe Illustrator 24.3.0, SVG Export Plug-In . SVG Version: 6.00 Build 0)  -->
<svg version="1.1" id="Capa_1" xmlns="http://www.w3.org/2000/svg" xmlns:xlink="http://www.w3.org/1999/xlink" x="0px" y="0px"
	 viewBox="0 0 16 16" style="enable-background:new 0 0 16 16;" xml:space="preserve">
<style type="text/css">
	.st0{fill:#676E80;}
</style>
<path class="st0" d="M6.5,0C6.2,0,6,0.2,6,0.5V3H4.5C3.7,3,3,3.7,3,4.5v9c0,0.6,0.4,1.2,1,1.4c0,0.6,0.4,1,0.9,1.1
	c0.6,0,1-0.4,1.1-0.9c0,0,0,0,0-0.1h4c0,0.6,0.4,1,1,1c0.6,0,1-0.4,1-1c0,0,0-0.1,0-0.1c0.6-0.2,1-0.8,1-1.4v-9
	C13,3.7,12.3,3,11.5,3H10V0.5C10,0.2,9.8,0,9.5,0H6.5z M9,3H7V1h2V3z M4,7V6h8v1H4z"/>
</svg>
