<?xml version="1.0" encoding="utf-8"?>
<!-- Generator: Adobe Illustrator 24.3.0, SVG Export Plug-In . SVG Version: 6.00 Build 0)  -->
<svg version="1.1" id="Capa_1" xmlns="http://www.w3.org/2000/svg" xmlns:xlink="http://www.w3.org/1999/xlink" x="0px" y="0px"
	 viewBox="0 0 800 800" style="enable-background:new 0 0 800 800;" xml:space="preserve">
<style type="text/css">
	.st0{fill:#FFFFFF;}
	.st1{fill-rule:evenodd;clip-rule:evenodd;fill:#67C15E;}
</style>
<desc>Created with Sketch.</desc>
<circle class="st0" cx="408.4" cy="398.7" r="341.3"/>
<g id="Icons">
	<g id="Color-" transform="translate(-700.000000, -360.000000)">
		<path id="Whatsapp" class="st1" d="M1099.9,360C879.4,360,700,539.4,700,760c0,87.5,28.2,168.6,76.2,234.5l-49.8,148.6l153.7-49.1
			c63.2,41.9,138.7,66.1,220,66.1c220.5,0,399.9-179.4,399.9-400c0-220.6-179.4-400-399.9-400L1099.9,360L1099.9,360z M988.2,563.2
			c-7.8-18.6-13.6-19.3-25.4-19.8c-4-0.2-8.5-0.5-13.4-0.5c-15.3,0-31.3,4.5-40.9,14.3c-11.8,12-40.9,40-40.9,97.4
			c0,57.4,41.8,112.9,47.5,120.6c5.9,7.8,81.6,127.2,199.1,175.9c91.9,38.1,119.2,34.6,140.1,30.1c30.6-6.6,68.9-29.2,78.5-56.4
			c9.6-27.3,9.6-50.6,6.8-55.5c-2.8-4.9-10.6-7.8-22.3-13.6c-11.8-5.9-68.9-34.1-79.7-37.9c-10.6-4-20.7-2.6-28.7,8.7
			c-11.3,15.8-22.3,31.8-31.3,41.4c-7.1,7.5-18.6,8.5-28.2,4.5c-12.9-5.4-49.1-18.1-93.8-57.9c-34.6-30.8-58.1-69.1-64.9-80.6
			c-6.8-11.8-0.7-18.6,4.7-24.9c5.9-7.3,11.5-12.5,17.4-19.3c5.9-6.8,9.2-10.3,12.9-18.3c4-7.8,1.2-15.8-1.6-21.6
			C1021.4,643.8,997.9,586.5,988.2,563.2z"/>
	</g>
</g>
</svg>
