<?xml version="1.0" encoding="utf-8"?>
<!-- Generator: Adobe Illustrator 24.3.0, SVG Export Plug-In . SVG Version: 6.00 Build 0)  -->
<svg version="1.1" xmlns="http://www.w3.org/2000/svg" xmlns:xlink="http://www.w3.org/1999/xlink" x="0px" y="0px"
	 viewBox="0 0 800 800" style="enable-background:new 0 0 800 800;" xml:space="preserve">
<style type="text/css">
	.st0{display:none;}
	.st1{display:inline;fill:#FFFFFF;}
	.st2{display:inline;}
	.st3{fill-rule:evenodd;clip-rule:evenodd;fill:#67C15E;}
	.st4{fill:url(#SVGID_1_);}
	.st5{fill-rule:evenodd;clip-rule:evenodd;fill:#FFFFFF;}
	.st6{fill:#FFFFFF;}
</style>
<g id="Capa_1" class="st0">
	<desc>Created with Sketch.</desc>
	<circle class="st1" cx="408.4" cy="398.7" r="341.3"/>
	<g id="Icons" class="st2">
		<g id="Color-" transform="translate(-700.000000, -360.000000)">
			<path id="Whatsapp" class="st3" d="M1099.9,360C879.4,360,700,539.4,700,760c0,87.5,28.2,168.6,76.2,234.5l-49.8,148.6
				l153.7-49.1c63.2,41.9,138.7,66.1,220,66.1c220.5,0,399.9-179.4,399.9-400s-179.4-400-399.9-400L1099.9,360L1099.9,360z
				 M988.2,563.2c-7.8-18.6-13.6-19.3-25.4-19.8c-4-0.2-8.5-0.5-13.4-0.5c-15.3,0-31.3,4.5-40.9,14.3c-11.8,12-40.9,40-40.9,97.4
				s41.8,112.9,47.5,120.6c5.9,7.8,81.6,127.2,199.1,175.9c91.9,38.1,119.2,34.6,140.1,30.1c30.6-6.6,68.9-29.2,78.5-56.4
				c9.6-27.3,9.6-50.6,6.8-55.5c-2.8-4.9-10.6-7.8-22.3-13.6c-11.8-5.9-68.9-34.1-79.7-37.9c-10.6-4-20.7-2.6-28.7,8.7
				c-11.3,15.8-22.3,31.8-31.3,41.4c-7.1,7.5-18.6,8.5-28.2,4.5c-12.9-5.4-49.1-18.1-93.8-57.9c-34.6-30.8-58.1-69.1-64.9-80.6
				c-6.8-11.8-0.7-18.6,4.7-24.9c5.9-7.3,11.5-12.5,17.4-19.3s9.2-10.3,12.9-18.3c4-7.8,1.2-15.8-1.6-21.6
				C1021.4,643.8,997.9,586.5,988.2,563.2z"/>
		</g>
	</g>
</g>
<g id="Capa_2">
	
		<linearGradient id="SVGID_1_" gradientUnits="userSpaceOnUse" x1="367.9633" y1="451.4212" x2="345.4633" y2="430.4211" gradientTransform="matrix(25 0 0 -25 -8568 11432)">
		<stop  offset="0" style="stop-color:#5BD066"/>
		<stop  offset="1" style="stop-color:#27B43E"/>
	</linearGradient>
	<path class="st4" d="M678.6,382.2c0,165.7-134.3,300-300,300c-63.2,0-121.8-19.5-170.2-52.9l-102.5,25.6l26.9-100.8
		c-34.1-48.7-54.1-108-54.1-172c0-165.7,134.3-300,300-300C544.2,82.2,678.6,216.5,678.6,382.2z"/>
	<path class="st5" d="M378.6,732.2c193.3,0,350-156.7,350-350c0-193.3-156.7-350-350-350c-193.3,0-350,156.7-350,350
		c0,62.8,16.5,121.7,45.5,172.6L28.6,732.2l182.9-42.4C261.1,716.8,318,732.2,378.6,732.2z M378.6,678.3
		c163.6,0,296.2-132.6,296.2-296.2C674.7,218.6,542.1,86,378.6,86C215,86,82.4,218.6,82.4,382.2c0,63.2,19.8,121.7,53.4,169.8
		l-26.5,99.5l101.2-25.3C258.3,659,316.2,678.3,378.6,678.3z"/>
	<path class="st6" d="M288.6,229.6c-8.3-16.7-21.1-15.2-34-15.2c-23,0-59,27.6-59,79c0,42.1,18.6,88.2,81.1,157.2
		c60.3,66.5,139.6,101,205.4,99.8c65.8-1.2,79.4-57.8,79.4-76.9c0-8.5-5.3-12.7-8.9-13.9c-22.4-10.8-63.8-30.8-73.2-34.6
		c-9.4-3.8-14.3,1.3-17.4,4.1c-8.5,8.1-25.5,32.1-31.2,37.5c-5.8,5.4-14.4,2.7-18,0.6c-13.2-5.3-49.1-21.3-77.7-49
		c-35.4-34.3-37.4-46.1-44.1-56.6c-5.3-8.4-1.4-13.5,0.5-15.8c7.6-8.8,18.1-22.4,22.9-29.1c4.7-6.7,1-17-1.3-23.4
		C303.4,265.9,295.2,243,288.6,229.6z"/>
</g>
</svg>
